<?xml version="1.0" encoding="utf-8"?>
<!-- Generator: Adobe Illustrator 25.4.1, SVG Export Plug-In . SVG Version: 6.00 Build 0)  -->
<svg version="1.0" id="Capa_3" xmlns="http://www.w3.org/2000/svg" xmlns:xlink="http://www.w3.org/1999/xlink" x="0px" y="0px"
	 viewBox="0 0 47 93" style="enable-background:new 0 0 47 93;" xml:space="preserve">
<style type="text/css">
	.st0{fill:#275289;}
	.st1{fill:#DF0030;}
	.st2{fill:#900000;}
	.st3{fill:#567FB9;}
	.st4{fill:#252525;}
	.st5{fill:#404040;}
</style>
<path d="M45,37.6L45,37.6L45,37.6v-0.2l0,0c0-0.1,0-0.2,0-0.3l0,0l0,0V37l0,0l0,0v-0.1v-0.1v-0.1l0,0l0,0v-0.1l0,0
	c0-0.1,0-0.1-0.1-0.2l0,0l0,0c0,0,0-0.1-0.1-0.1l0,0l0,0c0,0,0-0.1-0.1-0.1c0,0,0,0,0-0.1c0,0,0-0.1-0.1-0.1c0,0,0,0,0-0.1l-0.1-0.1
	l0,0l0,0c0-0.1-0.1-0.1-0.1-0.2c-0.5-0.6-1-1.1-1.4-1.5c-0.2-0.2-0.6-0.5-0.9-0.7c0-0.2,0-0.3,0-0.5l0,0v-0.2v-0.2l0,0l0,0
	c0-0.1,0-0.2,0-0.3l0,0l0,0c0-0.2,0-0.5,0-0.7l0,0l0,0v-0.3l0,0l0,0V31v-0.1l0,0l0,0v-0.3v-0.3l0,0l0,0v-0.2l0,0l0,0v-0.2l0,0l0,0
	v-0.2l0,0l0,0l0,0l0,0l0,0l0,0l0,0v-0.2l0,0l0,0v-0.1v-0.1v-0.1V29l0,0l0,0c0-0.1,0-0.1,0-0.2l0,0l0,0v-0.1l0,0l0,0v-0.1l0,0l0,0
	v-0.1l0,0l0,0l0,0l0,0l0,0l0,0l0,0l0,0l0,0l0,0l0,0l0,0l0,0l0,0l0,0l0,0l0,0l0,0l0,0v-0.1v-0.1l0,0l0,0l0,0l0,0l0,0l0,0l0,0l0,0l0,0
	l0,0l0,0l0,0v-0.1l0,0l0,0c0-0.1,0-0.2,0.1-0.3l0,0l0,0v-0.1l0,0v-0.1l0,0l0,0l0,0v-0.1l0,0l0,0v-0.1l0,0c0-0.1,0-0.2,0.1-0.3l0,0
	l0,0v-0.1l0,0V27l0,0v-0.1l0,0l0,0l0,0v-0.1l0,0c0-0.1,0-0.3,0.1-0.4l0,0l0,0v-0.1l0,0l0,0l0,0v-0.1l0,0l0,0v-0.1l0,0V26l0,0l0,0
	c0-0.1,0-0.3,0-0.5l0,0l0,0v-0.1v-0.1v-0.1v-0.1V25v-0.1l0,0l0,0v-0.1l0,0l0,0c0-0.2,0-0.3,0-0.5l0,0l0,0v-0.1l0,0v-0.1V24v-0.1
	v-0.1l0,0l0,0l0,0v-0.1v-0.1c0-0.2,0-0.3,0-0.5V23v-0.1v-0.1v-0.1l0,0l0,0l0,0v-0.1v-0.1v-0.1l0,0v-0.1v-0.1c0-0.1,0-0.1,0-0.2v-0.1
	c0-0.2,0-0.4,0-0.5l0,0c0-0.2,0-0.3,0-0.5v-0.1c0-0.2,0-0.3,0-0.5l0,0l0,0c0-0.2,0-0.4,0-0.5c0-0.4-0.1-0.9-0.2-1.3l0,0l0,0
	c0-0.3-0.1-0.6-0.1-0.8l0,0l0,0c0-0.1,0-0.3-0.1-0.4v-0.1c0-0.1,0-0.3-0.1-0.4l0,0l0,0c-0.1-0.3-0.1-0.6-0.2-0.9l0,0
	c0-0.1-0.1-0.3-0.1-0.4l0,0l0,0c0-0.1-0.1-0.3-0.1-0.4l0,0c-0.1-0.4-0.2-0.9-0.4-1.3l0,0c0-0.1-0.1-0.3-0.1-0.4l0,0l0,0
	c0-0.1-0.1-0.2-0.1-0.3c-0.1-0.4-0.3-0.7-0.4-1.1l0,0c0-0.1-0.1-0.2-0.1-0.2l0,0c0-0.1-0.1-0.2-0.1-0.2l0,0
	c-0.1-0.3-0.3-0.5-0.4-0.8l0,0c0-0.1-0.1-0.2-0.1-0.2l0,0c0-0.1-0.1-0.1-0.1-0.2l0,0c0-0.1-0.1-0.1-0.1-0.2l0,0l0,0
	c0-0.1-0.1-0.1-0.1-0.2c-0.1-0.2-0.2-0.3-0.3-0.4l0,0c0-0.1-0.1-0.1-0.1-0.2l0,0l0,0L39,9.3V9.2l-0.1-0.1c0,0,0,0,0-0.1
	c-0.1-0.1-0.1-0.1-0.2-0.2l0,0l0,0c-0.1-0.1-0.1-0.1-0.2-0.2l0,0C38,5.1,38,5,37.9,5l0,0l0,0l-0.1-0.1c0,0,0,0-0.1-0.1l-0.1-0.1
	c0,0,0,0-0.1-0.1l-0.1-0.1l0,0l0,0c-0.1,0-0.1-0.1-0.2-0.1l0,0C37,4.2,37,4.1,36.9,4.1l0,0l0,0L36.8,4c0,0-0.1,0-0.1-0.1l-0.1-0.1
	h-0.1l-0.1-0.1l0,0c0,0,0,0-0.1,0l-0.1-0.1l0,0c0,0,0,0-0.1,0s-0.2-0.1-0.2-0.1c-0.2-0.1-0.4-0.2-0.6-0.3l0,0l0,0
	c-0.2-0.1-0.4-0.2-0.6-0.3h-0.1c-0.2-0.1-0.4-0.2-0.6-0.2h-0.1l0,0c-0.2-0.1-0.4-0.2-0.6-0.2l0,0l0,0c-0.2-0.1-0.4-0.1-0.6-0.2l0,0
	l0,0c-0.2-0.1-0.4-0.1-0.6-0.2H32C31.8,2,31.6,2,31.4,1.9l0,0l0,0c-0.2-0.1-0.5-0.1-0.7-0.2l0,0c-0.2-0.1-0.4-0.1-0.7-0.2h-0.1
	c-0.2-0.1-0.4-0.1-0.6-0.1l0,0c-0.5-0.1-0.9-0.2-1.3-0.3c-0.2,0-0.4-0.1-0.7-0.1l0,0l0,0c-0.2,0-0.4-0.1-0.6-0.1
	c-1-0.1-1.9-0.2-2.8-0.2h-0.3c-0.4,0-0.9,0-1.3,0c-0.2,0-0.4,0-0.6,0l0,0c-0.2,0-0.4,0-0.6,0.1l0,0l0,0l0,0c-0.4,0-0.9,0.1-1.3,0.2
	c-0.2,0-0.4,0.1-0.7,0.1H19C18,0.9,17.8,1,17.6,1h-0.1c-0.2,0.1-0.5,0.1-0.7,0.2s-0.5,0.1-0.7,0.2l0,0c-0.2,0.1-0.4,0.1-0.7,0.2l0,0
	l0,0c-0.2,0.1-0.4,0.1-0.6,0.2h-0.1c-0.3,0-0.5,0.1-0.7,0.2l0,0l0,0c-0.2,0.1-0.5,0.2-0.7,0.2l0,0l0,0c-0.2,0.1-0.4,0.2-0.7,0.2l0,0
	h-0.1c-0.2,0.1-0.4,0.2-0.6,0.2h-0.1l0,0c-0.2,0.1-0.4,0.2-0.6,0.3h-0.1l0,0c-0.2,0.1-0.5,0.2-0.7,0.3c-0.1,0-0.1,0.1-0.2,0.1l0,0
	l0,0c0,0-0.1,0-0.1,0.1c0,0,0,0-0.1,0l0,0l0,0c0,0-0.1,0-0.1,0.1c0,0,0,0-0.1,0l0,0c0,0-0.1,0-0.1,0.1H9.6l0,0L9.5,3.7
	c0,0-0.1,0-0.1,0.1L9.3,3.9l0,0c0,0,0,0-0.1,0C9,4.2,9,4.3,9,4.3s-0.1,0-0.1,0.1L8.8,4.5l0,0c0,0,0,0-0.1,0L8.6,4.6l0,0l0,0L8.5,4.7
	l0,0l0,0C8.2,4.9,8.1,5,8,5.2l0,0l0,0L7.9,5.3l0,0l0,0L7.8,5.4c0,0,0,0,0,0.1l0,0L7.7,5.6c0,0,0,0-0.1,0.1L7.5,5.8L7.3,6L7.2,6.1
	c0,0,0,0,0,0.1L7.1,6.3v0.1L7,6.5l0,0l0,0c0,0.1-0.1,0.1-0.1,0.2l0,0l0,0c0,0.1-0.1,0.1-0.1,0.2l0,0l0,0C6.5,7.2,6.3,7.5,6.2,7.7
	l0,0l0,0c0,0.1-0.1,0.1-0.1,0.2l0,0l0,0C6,8,6,8.1,6,8.2v0.1c0,0.1-0.1,0.1-0.1,0.2l0,0l0,0c0,0.1-0.1,0.1-0.1,0.2v0.1
	c0,0.1-0.1,0.1-0.1,0.2l0,0l0,0c0,0.1-0.1,0.1-0.1,0.2l0,0l0,0c0,0.1-0.1,0.1-0.1,0.2l0,0c0,0.1-0.1,0.2-0.1,0.2l0,0
	c-0.2,0.4-0.3,0.7-0.4,1l0,0l0,0c0,0.2-0.1,0.3-0.1,0.5l0,0l0,0c0,0.1-0.1,0.3-0.1,0.4l0,0l0,0c-0.2,0.5-0.4,1-0.5,1.5l0,0l0,0
	c0,0.1-0.1,0.3-0.1,0.4l0,0l0,0c0,0.2-0.1,0.3-0.1,0.5l0,0l0,0C4.1,14.3,4,14.7,4,15l0,0c-0.1,0.6-0.2,1.3-0.2,1.9
	c0,0.2,0,0.4,0,0.6l0,0c0,0.2,0,0.4,0,0.6l0,0c0,0.4,0,0.8,0,1.2c0,0.1,0,0.1,0,0.2c0,3.1,0.4,5.8,0.7,7.1l0,0l0,0
	c0,0.1,0,0.2,0.1,0.3l0,0l0,0l0,0l0,0l0,0l0,0l0,0l0,0l0,0l0,0l0,0l0,0l0,0V27l0,0l0,0v0.1l0,0v0.2l0,0c0,0.1,0,0.1,0,0.2l0,0l0,0
	c0,0.1,0,0.1,0,0.2l0,0l0,0v0.2l0,0l0,0c0,0.1,0,0.1,0,0.2l0,0l0,0v0.2v0.1l0,0l0,0v0.2l0,0l0,0l0,0l0,0v0.2l0,0l0,0V29v0.1v0.3l0,0
	l0,0v0.3l0,0l0,0v0.1v0.1l0,0l0,0v0.3l0,0l0,0v0.1v0.1v0.1v0.3v0.1v0.3v0.1l0,0v0.3l0,0l0,0v0.3V32v1l0,0l0,0
	c-0.4,0.2-0.8,0.5-1.1,0.8c-0.5,0.4-1,0.9-1.4,1.5c0,0.1-0.1,0.1-0.1,0.2l0,0l0,0l-0.1,0.1v0.1c0,0,0,0.1-0.1,0.1c0,0,0,0,0,0.1
	c0,0,0,0.1-0.1,0.1l0,0l0,0c0,0,0,0.1-0.1,0.1l0,0l0,0c0,0.1,0,0.1-0.1,0.2l0,0v0.1l0,0l0,0v0.1v0.1v0.1c0,0,0,0,0,0.1v0.1l0,0l0,0
	V37v0.1l0,0v0.1l0,0v0.1l0,0l0,0l0,0v0.1l0,0v0.1c0,0.4,0.1,0.7,0.1,0.7c0,0.1,0.1,0.1,0.1,0.2c0,0,0,0.1,0.1,0.1
	C1.4,39,1.6,39,1.7,39h0.1c0.9-0.2,1.8-0.5,2.5-0.9v0.1v0.2v0.2v0.3v0.2v0.3v0.2v0.3c0.1,4.1,0.2,8.5,0.3,11.6v0.3
	c0,0.1,0,0.2,0,0.3s0,0.2,0,0.2l0,0l0,0v0.1v0.2l0,0v0.1v0.1l0,0V53l0,0v0.1v0.1l0,0l0,0v0.1v0.1l0,0v0.1l0,0l0,0l0,0v0.2l0,0v0.1
	l0,0l0,0v0.1V54v0.1l0,0l0,0v0.1l0,0l0,0c0.2,3.4-0.4,6.9-0.9,9.8v0.3c-0.5,3.1-0.5,6.6-0.4,8v0.1l0,0l0,0l0,0l0,0l0,0l0,0l0,0l0,0
	l0,0l0,0l0,0l0,0l0,0l0,0l0,0l0,0l0,0l0,0v0.1l0,0l0,0v0.1l0,0c0,0,0,0,0,0.1l0,0l0,0l0,0l0,0l0,0v0.1l0,0l0,0v0.1l0,0V73l0,0l0,0
	l0,0v0.1l0,0v0.1l0,0l0,0l0,0v0.1l0,0v0.1l0,0l0,0l0,0l0,0v0.1l0,0v0.1l0,0l0,0v0.1l0,0l0,0v0.1l0,0l0,0l0,0v0.1l0,0l0,0v0.2l0,0
	l0,0v0.1c0,0.1,0,0.1,0,0.2s0,0.1,0,0.2v0.1v0.1C3.6,76,4,77.3,4.4,78.4C4.8,79.7,6,83.9,7.6,86l0.1,0.1l0,0l0,0l0,0
	c0,0,0,0,0.1,0.1l0,0l0,0l0,0c0,0,0,0,0.1,0.1l0,0l0,0l0,0c0,0,0,0,0.1,0.1l0,0l0,0c0,0,0,0,0.1,0.1l0,0l0,0c0,0,0,0,0.1,0.1h0.1
	c0,0,0,0,0.1,0.1l0,0l0,0c0,0,0.1,0,0.1,0.1c0,0,0,0,0.1,0.1c0,0,0.1,0,0.1,0.1l0,0l0,0c0,0,0.1,0,0.1,0.1h0.1L9,87.2l0,0h0.1
	c0,0,0.1,0,0.1,0.1l0,0l0,0c0,0,0.1,0,0.1,0.1h0.1c0,0,0.1,0,0.1,0.1h0.1c0,0,0.1,0,0.1,0.1h0.1c0,0,0.1,0,0.1,0.1l0,0l0,0
	c0,0,0.1,0,0.1,0.1h0.1l0,0c0,0,0.1,0,0.1,0.1h0.1c0,0,0.1,0,0.1,0.1l0,0l0,0c0,0,0.1,0,0.1,0.1l0,0l0,0c0,0,0.1,0,0.2,0.1l0,0l0,0
	c0.1,0,0.1,0,0.2,0.1l0,0l0,0c0.1,0,0.1,0.1,0.2,0.1l0,0l0,0c0.1,0,0.1,0.1,0.2,0.1l0,0l0,0l0,0c0.3,0.1,0.5,0.2,0.8,0.3
	c0.2,0.1,0.4,0.2,0.7,0.2l0,0c2.7,0.8,5.8,1.2,9.1,1.2l0,0l0,0c3.3,0,6.4-0.4,9-1.2l0,0l0,0l0,0H31l0,0l0,0l0,0h0.1l0,0h0.1l0,0l0,0
	l0,0l0,0l0,0h0.1l0,0l0,0l0,0h0.1h0.1l0,0h0.1h0.1l0,0l0,0h0.1h0.1H32h0.1l0,0h0.1h0.1l0,0h0.1h0.1h0.1h0.1l0,0l0,0h0.1h0.1l0,0H33
	h0.1c0,0,0.1,0,0.1-0.1l0,0h0.1c0,0,0.1,0,0.1-0.1l0,0h0.1c0,0,0.1,0,0.1-0.1h0.1h0.1l0,0h0.1H34l0,0h0.1c0,0,0.1,0,0.1-0.1h0.1
	l0.1-0.1h0.1c0,0,0.1,0,0.1-0.1l0,0c0,0,0,0,0.1-0.1c0,0,0.1,0,0.1-0.1l0,0c0,0,0,0,0.1,0c0,0,0.1,0,0.1-0.1c0,0,0,0,0.1-0.1
	c0,0,0,0,0.1,0l0,0l0,0l0,0c0,0,0,0,0.1,0l0,0l0,0l0,0c0,0,0,0,0.1-0.1l0,0c0,0,0,0,0.1,0c0,0,0,0,0.1,0l0,0l0,0l0,0
	c0,0,0,0,0.1-0.1l0,0l0,0c0,0,0,0,0.1-0.1l0,0l0,0l0,0c0,0,0,0,0.1-0.1l0,0l0,0c0,0,0,0,0.1-0.1l0,0l0,0l0,0l0.1-0.1
	c1.2-1.5,2.1-4.1,2.7-5.9c1.3-3,1.9-6,2.2-7.1l0,0v-0.1v-0.1l0,0v-0.1l0,0l0,0l0,0V74l0,0l0,0l0,0v-0.1l0,0l0,0v-0.1l0,0l0,0v-0.1
	l0,0l0,0l0,0l0,0l0,0l0,0l0,0l0,0l0,0l0,0l0,0v-0.1v-0.1l0,0l0,0l0,0l0,0l0,0l0,0l0,0l0,0l0,0l0,0l0,0l0,0v-0.1
	c0.1-1.4,0.1-4.9-0.4-8v-0.2v-0.3l0,0v-0.1v-0.1v-0.1c0-0.1,0-0.1,0-0.2l0,0v-0.1v-0.2V64l0,0l0,0c0-0.1,0-0.2,0-0.3v-0.1l0,0v-0.2
	v-0.1v-0.1v-0.3v-0.1l0,0c0-0.1,0-0.2-0.1-0.4c-0.3-1.8-0.6-4.6-0.4-7.2v-0.1l0,0V55l0,0v-0.1l0,0v-0.1l0,0l0,0l0,0v-0.1l0,0v-0.2
	v-0.2l0,0l0,0v-0.1c0-0.1,0-0.2,0-0.3l0,0v-0.1v-0.1l0,0v-0.1v-0.2l0,0l0,0v-0.2v-0.1l0,0v-0.2l0,0v-0.1v-0.2l0,0v-0.2v-0.1l0,0l0,0
	v-0.2l0,0V52v-0.2l0,0l0,0v-0.3l0,0l0,0c0-0.2,0-0.4,0-0.6l0,0l0,0c0-0.2,0-0.4,0-0.6l0,0v-0.1v-0.5l0,0V49l0,0l0,0
	c0.1-2.8,0.1-5.8,0.2-8.7l0,0l0,0v-0.2v-0.2l0,0l0,0l0,0c0-0.1,0-0.1,0-0.2c0.7,0.3,1.5,0.6,2.4,0.8h0.1c0.1,0,0.3,0,0.4-0.1
	c0,0,0.1,0,0.1-0.1c0.1,0,0.1-0.1,0.1-0.2c0,0,0.1-0.4,0.1-0.9l0,0C45,37.7,45,37.7,45,37.6L45,37.6z"/>
<path class="st0" d="M24.4,87c-0.2,0.1-0.8,0.5-1.5,1c-0.6-0.5-1.3-0.9-1.5-1l-16-7.6c0,0,1.4,5.4,3.3,7.8s7.6,4.2,14.3,4.2l0,0l0,0
	c6.7,0,12.4-1.8,14.3-4.2c1.9-2.4,3.3-7.8,3.3-7.8L24.4,87z"/>
<path class="st0" d="M14.8,90c-0.1-0.5-0.3-1.3-0.3-1.3L12.2,84c0,0-0.5-0.9-1.2-2l-5.6-2.7c0,0,1.4,5.4,3.3,7.8
	c1,1.3,3,2.4,5.6,3.1C14.5,90.3,14.8,90.2,14.8,90z"/>
<path class="st0" d="M37.3,87.2c1.9-2.4,3.3-7.8,3.3-7.8L35.1,82c-0.7,1.1-1.2,2.1-1.2,2.1l-2.3,4.6c0,0-0.3,0.8-0.3,1.3
	c0,0.2,0.2,0.3,0.4,0.3C34.3,89.6,36.3,88.5,37.3,87.2z"/>
<path class="st0" d="M14.4,88.7L14,87.8c-0.3,0.1-0.6,0.4-0.6,1s-0.3,0.9-0.5,1.1c0.4,0.2,0.9,0.3,1.4,0.5c0.3,0,0.6-0.1,0.5-0.4
	C14.7,89.5,14.4,88.7,14.4,88.7z M32.7,88.8c0-0.6-0.3-0.9-0.6-1l-0.4,0.9c0,0-0.3,0.8-0.3,1.3c0,0.2,0.2,0.3,0.4,0.3
	c0.5-0.1,1-0.3,1.5-0.5C33,89.7,32.7,89.3,32.7,88.8z"/>
<g>
	<path class="st1" d="M6.4,82c0,0,1.6,6.1,7.5,7.2l0.6-0.4c0,0-1.9-2.9-2.1-2.9C12.2,85.8,6.4,82,6.4,82z"/>
	<path class="st2" d="M13.9,88.9c-2.3-0.5-4.3-1.8-5.7-3.9c-0.7-1-1.1-1.9-1.3-2.5c0.6,0.4,1.5,1,2.4,1.5c2.3,1.5,2.9,1.8,3.1,1.9
		c0.2,0.2,1.1,1.4,1.9,2.7L13.9,88.9L13.9,88.9z"/>
</g>
<g>
	<path class="st1" d="M39.7,82c0,0-1.6,6.1-7.5,7.2l-0.6-0.4c0,0,1.9-2.9,2.1-2.9C33.9,85.8,39.7,82,39.7,82z"/>
	<path class="st2" d="M32.2,88.9c2.3-0.5,4.3-1.8,5.7-3.9c0.7-1,1.1-1.9,1.3-2.5c-0.6,0.4-1.5,1-2.4,1.5c-2.3,1.5-2.9,1.8-3.1,1.9
		c-0.2,0.2-1.1,1.4-1.9,2.7L32.2,88.9L32.2,88.9z"/>
</g>
<g>
	<path class="st0" d="M41.9,64.7c-0.5-3-1.2-6.8-0.9-10.3c0.2-3.6,0.7-23.2,0.3-27.3c0,0,1.2-5.1,0.7-10.3S39.8,5.5,35.5,3.6
		s-8.9-3-12.4-3h-0.3c-3.6,0-8.2,1-12.4,3s-6,8-6.5,13.2s0.7,10.3,0.7,10.3c-0.3,4.1,0.1,23.8,0.3,27.3C5.1,58,4.5,61.8,4,64.7
		c-0.5,3-0.5,6.5-0.4,7.9c0.1,1.5,1.1,6.9,3.6,11s7.2,5.1,7.2,5.1l8-2l-0.8-28.6l1.3-25.2l1.3,25.2l-0.8,28.6l8,2c0,0,4.7-1,7.2-5.1
		s3.5-9.5,3.6-11C42.4,71.2,42.4,67.7,41.9,64.7z"/>
	<path class="st0" d="M5.3,21.2c0.8,2.5,1.3,12.3,1.3,12.3l3.5-16.3l-0.2-3.7l-1-4.2L5.8,9.1c-1,2.4-1.5,5.1-1.7,7.6
		C4,17.5,4,18.3,4,19C4.4,19.5,4.9,20.1,5.3,21.2z"/>
	<path class="st0" d="M40.6,9.8c-0.2-0.4-0.3-0.7-0.3-0.7l-3.2,0.2l-1,4.2l-0.2,3.7l3.5,16.3c0,0,0.5-9.8,1.3-12.3
		c0.4-1.2,1-1.8,1.5-2.3c0-0.7,0-1.5-0.1-2.2C41.9,14.4,41.4,12,40.6,9.8z"/>
	<g>
		<path class="st0" d="M39.2,30.4c0,0,0.4-14.3-1.2-20.1l-3.6-4.5l-3.1-0.7l-1.4,9.2l4.3,12.3l3.2,3.7L39.2,30.4z"/>
		<path class="st0" d="M33,6.8c0,0,7.9,1.3,4,18.8L33,6.8z"/>
		<path class="st0" d="M32.9,7.3c0,0,6.6,1.1,2.9,13.7L32.9,7.3z"/>
	</g>
	<g>
		<path class="st0" d="M6.8,30.4c0,0-0.4-14.3,1.2-20.1l3.6-4.5l3.1-0.7l1.4,9.2l-4.3,12.3l-3.2,3.7L6.8,30.4z"/>
		<path class="st0" d="M13,6.8c0,0-7.9,1.3-4,18.8L13,6.8z"/>
		<path class="st0" d="M13.1,7.3c0,0-6.6,1.1-2.9,13.7L13.1,7.3z"/>
	</g>
	<path class="st0" d="M6.3,69.6c0,0,0,0.1,0,0.3c-0.1,1.4-0.1,7,3.1,15c0,0,2.2,2.1,3.8,2.6c0,0-2.6-4.1-4.1-8.3L6.3,69.6z"/>
	<path class="st0" d="M39.7,69.6c0,0,0,0.1,0,0.3c0.1,1.4,0.1,7-3.1,15c0,0-2.2,2.1-3.8,2.6c0,0,2.6-4.1,4.1-8.3L39.7,69.6z"/>
	<path class="st0" d="M6.3,64.9c0,0,0,1.4,2.1,9.9s5.8,12.9,5.8,12.9l-1.6-41L8.2,36.2c0,0-3.1,0-2.9,6.6c0.1,3.3,0,7.8-0.2,11.6
		c0.2,3.5-0.4,7.3-0.9,10.3c-0.5,3-0.5,6.5-0.4,7.9c0.1,1.5,1.1,6.9,3.6,11c0.5,0.9,1.1,1.6,1.8,2.2C3.5,74,6.3,64.9,6.3,64.9z"/>
	<path class="st0" d="M38.8,83.7c2.5-4.1,3.5-9.5,3.6-11s0.1-5-0.4-7.9c-0.2-0.9-0.3-2-0.5-3c-0.1-0.2-0.2-0.3-0.2-0.3
		s-0.9-12-0.6-18.6c0.2-6.6-2.9-6.6-2.9-6.6l-4.5,10.6l-1.6,41c0,0,3.7-4.3,5.8-12.9c2.1-8.6,2.1-9.9,2.1-9.9s2.9,9.3-3,21.3
		C37.4,85.5,38.2,84.7,38.8,83.7z"/>
	<path class="st0" d="M4.3,70c0.1-6.6,1.7-9.7,1.5-14.2S5.2,45.2,5.2,45.2s-0.1,0-0.3,0.1c0.1,4.1,0.2,7.7,0.3,9
		c0.2,3.6-0.4,7.4-0.9,10.3c-0.5,3-0.5,6.5-0.4,7.9C4,74,5,79.3,7.4,83.4C6.3,81,4.2,75,4.3,70z M41.9,64.7c-0.5-3-1.2-6.8-0.9-10.3
		c0.1-1.3,0.2-4.8,0.3-9c-0.2-0.1-0.3-0.1-0.3-0.1s-0.4,6.1-0.6,10.6c-0.2,4.5,1.4,7.6,1.5,14.2c0.1,5-2,11-3,13.6
		c2.4-4.1,3.4-9.4,3.5-10.9C42.4,71.2,42.4,67.7,41.9,64.7z"/>
</g>
<g>
	<path class="st3" d="M14.2,86.9c0,0-3.1-5-4.4-9.7c-1.2-4.7-1.6-11.1-1.6-11.1L7.5,39.6l-0.9-7c0,0,0-3.7,1.6-2.8S15,42,15,42
		l1.5,43.1L14.2,86.9z"/>
	<path class="st3" d="M12.7,83c0,0-2.6-3.7-3.6-12.2l0.7,0.7l0.6-4.9C10.5,66.7,12,79.1,12.7,83z"/>
	<path class="st3" d="M15.1,46.7c-1.6-2.5-3.5-5.6-3.7-5.8c-0.3-0.3-2.2-1.2-2.2-0.9c0,0.2,0.8,15,0.8,15
		c0.9,15.7,3.7,30.2,3.9,31.4l0,0l2.4-5.7L15.1,46.7z"/>
</g>
<g>
	<path class="st3" d="M31.8,86.9c0,0,3.1-5,4.4-9.7c1.2-4.7,1.6-11.1,1.6-11.1l0.7-26.6l0.9-7c0,0,0-3.7-1.6-2.8
		c-1.5,1-6.7,12.3-6.7,12.3l-1.5,43.1L31.8,86.9z"/>
	<path class="st3" d="M33.3,83c0,0,2.6-3.7,3.6-12.2l-0.7,0.7l-0.6-4.9C35.5,66.7,34,79.1,33.3,83z"/>
	<path class="st3" d="M30.9,46.7c1.6-2.5,3.5-5.6,3.7-5.8c0.3-0.3,2.2-1.2,2.2-0.9c0,0.2-0.8,15-0.8,15c-0.9,15.7-3.7,30.2-3.9,31.4
		l0,0l-2.4-5.7L30.9,46.7z"/>
</g>
<path class="st0" d="M6.8,30.8C6.8,30.8,6.9,30.8,6.8,30.8c-0.3-0.5-0.8-0.9-1.2-1.3C5.3,29.3,5,29,4.7,28.8v0.1
	c0.3,0.2,0.6,0.4,0.9,0.7C6,30,6.4,30.4,6.8,30.8z M14.5,85.3c-1.3-0.5-2.5-1.1-3.8-1.6l0,0c0-0.5,0-0.9,0-1.4
	c0.1-0.8,0.5-1.5,0.9-2.2c0.5-0.8,1-1.5,1.6-2.1c0,0,0-0.1-0.1-0.1c-0.3,0.4-0.6,0.8-0.9,1.2c-0.5,0.7-1.1,1.5-1.4,2.3
	c-0.3,0.6-0.3,1.3-0.3,1.9c0,0.8,0.1,1.6,0.2,2.4c0.1,0.5,0.2,1.1,0.3,1.6c0,0,0.1,0,0.1,0.1c-0.2-0.9-0.3-1.8-0.4-2.8
	c0-0.3-0.1-0.6-0.1-0.9C11.9,84.3,13.2,84.9,14.5,85.3C14.5,85.4,14.5,85.3,14.5,85.3z M7.3,54.7l-2.1,1.6v0.1
	C5.9,55.8,6.6,55.3,7.3,54.7C7.4,54.7,7.3,54.7,7.3,54.7z M11.7,6c0.8-0.3,1.6-0.6,2.4-0.9c0.1,0,0-0.1,0-0.1
	C13.3,5.3,12.5,5.6,11.7,6C11.6,5.9,11.7,6,11.7,6z M33.6,79.1c-0.3-0.4-0.6-0.8-0.9-1.2c0,0-0.1,0-0.1,0.1c0.6,0.7,1.1,1.4,1.6,2.1
	c0.4,0.7,0.9,1.4,0.9,2.2c0,0.4,0,0.9,0,1.4l0,0c-1.3,0.5-2.5,1.1-3.8,1.6v0.1l3.7-1.6c0,0.3,0,0.6-0.1,0.9c-0.1,1-0.3,2-0.5,2.9
	c0,0,0.1,0,0.1-0.1c0.1-0.6,0.2-1.2,0.3-1.7c0.1-0.8,0.2-1.6,0.2-2.4c0-0.7,0-1.3-0.3-1.9C34.7,80.6,34.2,79.8,33.6,79.1z
	 M41.4,28.7c-0.4,0.3-0.7,0.5-1.1,0.9c-0.4,0.4-0.9,0.8-1.3,1.2c0,0,0,0.1,0.1,0c0.4-0.4,0.8-0.8,1.2-1.2c0.3-0.3,0.7-0.6,1.1-0.8
	C41.4,28.8,41.4,28.8,41.4,28.7C41.4,28.8,41.4,28.7,41.4,28.7z M31.8,5.1c0.8,0.3,1.6,0.6,2.4,0.9c0,0,0.1-0.1,0-0.1
	C33.4,5.6,32.6,5.3,31.8,5.1C31.7,5,31.7,5.1,31.8,5.1z M38.6,54.7C38.5,54.7,38.5,54.7,38.6,54.7l2.4,1.8v-0.1
	C40.2,55.9,39.4,55.3,38.6,54.7z"/>
<g>
	<g>
		<path class="st3" d="M38.5,29.2C38.2,29,28.1,29.9,23,30.4C18,29.9,7.8,29,7.5,29.2c-0.4,0.2-0.7,1.5-0.7,1.5s0.7,3.5,1.8,7
			c1.1,3.6,1.7,13.6,2,20.5c0.3,7,2.1,20.1,2.1,20.1l1.7,10.5c3,1.2,8.5,1.1,8.5,1.1v-0.1v0.1c0,0,5.5,0.2,8.5-1.1l1.7-10.5
			c0,0,1.7-13.2,2.1-20.1s0.9-17,2-20.5c1.1-3.6,1.8-7,1.8-7S38.9,29.4,38.5,29.2z"/>
		<path class="st3" d="M14.5,88.8c3,1.2,8.5,1.1,8.5,1.1v-0.1v0.1c0,0,5.5,0.2,8.5-1.1l1.5-9H13L14.5,88.8z"/>
		<path class="st3" d="M39.2,30.6c0,0-0.2-1.2-0.7-1.5C38.2,29,28.1,29.9,23,30.4C18,29.9,7.8,29,7.5,29.2c-0.4,0.2-0.7,1.5-0.7,1.5
			s0.7,3.5,1.8,7c0.6,2.1,1.1,6.5,1.4,11.1c5.3-0.1,19.1-0.2,25.8-0.1c0.3-4.6,0.8-8.9,1.4-11C38.4,34.1,39.2,30.6,39.2,30.6z"/>
	</g>
	<path d="M12.4,63.3c-0.1-1-0.1-2.1-0.2-3.1c-0.2-2.4-0.3-4.8-0.5-7.2c-0.2-2.7-0.4-5.4-0.6-8c-0.1-1.9-0.3-3.8-0.4-5.7
		c0-0.3,0-0.7-0.1-1c0-0.1-0.1,0-0.1,0c0.1,1,0.1,2.1,0.2,3.1c0.2,2.4,0.3,4.8,0.5,7.2c0.2,2.7,0.4,5.4,0.6,8
		c0.1,1.9,0.3,3.8,0.4,5.7C12.3,62.7,12.3,63,12.4,63.3C12.3,63.4,12.4,63.4,12.4,63.3L12.4,63.3z"/>
	<path d="M33.5,63.3c0.1-1,0.1-2.1,0.2-3.1c0.2-2.4,0.3-4.8,0.5-7.2c0.2-2.7,0.4-5.4,0.6-8c0.1-1.9,0.3-3.8,0.4-5.7
		c0-0.3,0-0.7,0.1-1c0-0.1,0.1,0,0.1,0c-0.1,1-0.1,2.1-0.2,3.1c-0.2,2.4-0.3,4.8-0.5,7.2c-0.2,2.7-0.4,5.4-0.6,8
		c-0.1,1.9-0.3,3.8-0.4,5.7C33.6,62.7,33.6,63,33.5,63.3C33.6,63.4,33.5,63.4,33.5,63.3L33.5,63.3z"/>
</g>
<path class="st0" d="M4,16.7C3.6,22,4.8,27.1,4.8,27.1C4.6,29,4.6,34.4,4.7,39.9c0.3-2.4,0.6-4.8,0.6-6.3c0.1-2.6,0-5.7-0.3-8.4
	c-0.3-2.6-0.8-6-0.8-6c0-4,1.7-11.8,5.8-14.6c3.7-2.5,10.3-3.9,11.6-4.2c-3.3,0.2-7.4,1.2-11.1,2.9C6.3,5.5,4.5,11.5,4,16.7z
	 M42.1,16.7c-0.5-5.2-2.2-11.3-6.5-13.2C32,1.8,28,0.8,24.7,0.6c1.4,0.3,7.9,1.7,11.6,4.2c4.1,2.8,5.6,11,5.6,15
	c0,0-0.3,2.9-0.7,5.5c-0.3,2.6-0.4,5.8-0.3,8.4c0,1.3,0.3,3.2,0.5,5.3c0.1-5.2,0.1-10-0.1-11.8C41.3,27.1,42.6,22,42.1,16.7z"/>
<g>
	<path class="st3" d="M38.1,28.4L38.1,28.4l-15.1-4l-15.1,4l0,0c0,0,0,0-0.1,0c0,0,0,0-0.1-0.1c0,0-0.6-3.8,1.8-11.9
		c2.1-7.2,3.8-11.6,4.8-12.3c0.5-0.4,3.3-2.4,8.7-2.4s8.2,2,8.7,2.4c0.9,0.7,2.6,5.1,4.8,12.3c2.4,8.1,1.8,11.9,1.8,11.9
		C38.2,28.4,38.2,28.4,38.1,28.4C38.2,28.4,38.1,28.4,38.1,28.4L38.1,28.4z"/>
	<path class="st3" d="M36.4,16.4c-2.4-8.2-4-11.6-4.7-12.2C30.8,3.6,28,1.8,23,1.8l0,0l0,0c-5,0-7.9,1.8-8.6,2.4
		C13.6,4.8,12,8.3,9.6,16.4S7.8,28.3,7.8,28.3l15.1-4l15.1,4C38.1,28.3,38.8,24.6,36.4,16.4z"/>
	<path class="st3" d="M35.6,16.4c-2.3-8.2-3.8-11.6-4.5-12.2s-3.4-2.4-8.2-2.4l0,0l0,0c-4.7,0-7.4,1.8-8.2,2.4
		c-0.7,0.6-2.2,4.1-4.5,12.2S8.7,28.3,8.7,28.3l14.3-4l14.3,4C37.3,28.3,37.9,24.6,35.6,16.4z"/>
	<path class="st3" d="M8.5,26.9c0,0,3.1-7,14.4-7S37.5,27,37.5,27l-12.9,1l-16-0.7L8.5,26.9z"/>
</g>
<path class="st4" d="M33.3,63.1H12.6c0,0-1.1,0.1-1,1.7c0.1,1.5,1.5,13.5,1.5,13.5s1.2,1.5,9.9,1.5l0,0l0,0l0,0l0,0
	c8.7,0,9.9-1.5,9.9-1.5s1.5-11.9,1.5-13.5C34.5,63.2,33.3,63.1,33.3,63.1z"/>
<path class="st5" d="M8.9,41.3l-2.3-9.8c0,0-0.7,8.5,0.3,23.3S9.4,70,9.4,70s0.6-3.7,0.2-14.1C9.4,45.9,8.9,41.3,8.9,41.3z"/>
<path d="M7,54.8C8,69.6,9.5,70,9.5,70s0.1-0.4,0.1-1.3v-0.1C6.6,54,7.3,37,7.3,37l1.5,3.7l-2.1-9.2C6.7,31.5,6,40,7,54.8z"/>
<path class="st5" d="M39.3,31.5L37,41.3c0,0-0.5,4.5-0.8,14.6C35.9,66.3,36.4,70,36.4,70S38,69.7,39,54.8C40,40,39.3,31.5,39.3,31.5
	z"/>
<path d="M39,54.8c1-14.8,0.3-23.3,0.3-23.3l-2.2,9.7l0,0l1.7-4.2c0,0,0.7,17-2.3,31.7c0,0,0,0.1-0.1,0.4c0.1,0.7,0.1,1,0.1,1
	S38,69.7,39,54.8z"/>
<path class="st5" d="M36.9,37.8l2-8.3C34.7,20.4,23.4,20.9,23,21c-0.4,0-11.8-0.6-15.9,8.6l2,8.3c0,0,0.2,1.4,1.8,0.9
	c1.6-0.6,7.4-1.5,12.1-1.5c4.6,0,10.5,0.9,12.1,1.5C36.7,39.3,36.9,37.8,36.9,37.8z"/>
<path class="st4" d="M7.1,29.6l2,8.3c0,0,0.2,1.4,1.8,0.9c1.6-0.6,7.4-1.5,12.1-1.5c4.6,0,10.5,0.9,12.1,1.5s1.8-0.9,1.8-0.9l2-8.3
	c-0.9-2.1-2.2-3.6-3.7-4.8l-1,2.2c0,0,3.7,1.4,3.1,4.3c-0.6,2.9-1.7,6.4-1.7,6.4S30.1,36,22.9,36l0,0l0,0c-7.2,0-12.7,1.7-12.7,1.7
	S9,34.2,8.5,31.3s3.1-4.3,3.1-4.3l-1-2.1C9.2,26,8,27.5,7.1,29.6z"/>
<path class="st4" d="M23,21c-0.4,0-11.8-0.6-15.9,8.6l0.1,0.6c0.5-0.5,3.4-3.1,8.3-4.7l0,0c0.1,0,0.1,0,0.2-0.1c0.1,0,0.2,0,0.2-0.1
	l0,0c2-0.6,4.4-1,7.1-1s5.1,0.4,7.1,1l0,0c0.1,0,0.2,0,0.2,0.1c0.1,0,0.1,0,0.2,0.1l0,0c4.7,1.5,7.5,3.9,8.2,4.6l0.1-0.5
	C34.7,20.4,23.4,20.9,23,21z"/>
</svg>
